<?xml version="1.0" encoding="utf-8"?>
<!-- Generator: Adobe Illustrator 16.0.0, SVG Export Plug-In . SVG Version: 6.00 Build 0)  -->
<!DOCTYPE svg PUBLIC "-//W3C//DTD SVG 1.1//EN" "http://www.w3.org/Graphics/SVG/1.1/DTD/svg11.dtd" [
	<!ENTITY ns_flows "http://ns.adobe.com/Flows/1.0/">
	<!ENTITY ns_extend "http://ns.adobe.com/Extensibility/1.0/">
	<!ENTITY ns_ai "http://ns.adobe.com/AdobeIllustrator/10.0/">
	<!ENTITY ns_graphs "http://ns.adobe.com/Graphs/1.0/">
]>
<svg version="1.1" id="Layer_1" xmlns:x="&ns_extend;" xmlns:i="&ns_ai;" xmlns:graph="&ns_graphs;"
	 xmlns="http://www.w3.org/2000/svg" xmlns:xlink="http://www.w3.org/1999/xlink" xmlns:a="http://ns.adobe.com/AdobeSVGViewerExtensions/3.0/"
	 x="0px" y="0px" width="50px" height="50px" viewBox="0 0 50 50" enable-background="new 0 0 50 50" xml:space="preserve">
<path opacity="0.5" fill="#FF3347" enable-background="new    " d="M25,48.438C12.031,48.438,1.563,37.969,1.563,25
	S12.031,1.563,25,1.563S48.438,12.031,48.438,25S37.969,48.438,25,48.438z M25,7.813C15.469,7.813,7.813,15.469,7.813,25
	S15.469,42.188,25,42.188S42.188,34.531,42.188,25S34.531,7.813,25,7.813z"/>
<path fill="#FF3347" d="M40.938,18.438c2.344-0.313,4.219-1.563,5.156-3.594c-1.719-3.906-5-7.344-8.594-9.688
	C35.469,5.938,33.906,7.813,33.438,10C36.875,11.875,39.531,15,40.938,18.438z"/>
</svg>
